# xmcd CD database file
#
# Track frame offsets:
#	150
#	8607
#	21131
#	32384
#	41190
#	55163
#	69735
#	86531
#	103075
#	120646
#	139583
#	155125
#	166703
#	177569
#
# Disc length: 2504 seconds
#
# Revision: 1
# Processed by: cddbd v1.5.1PL0 Copyright (c) Steve Scherf et al.
# Submitted via: Feurio! 1.68 - http://www.feurio.com
#
DISCID=b209c60e
DTITLE=Женя Глюк и группа прикрытия - Мафозы
DYEAR=2001
DGENRE=
TTITLE0=Чтоб ты сдох
TTITLE1=Крысиный блюз
TTITLE2=Корзиночка
TTITLE3=Баллада о короле
TTITLE4=Подруженьки
TTITLE5=Чиж и грач
TTITLE6=Не надо солнца
TTITLE7=Усталый блюз
TTITLE8=Ехали-поехали
TTITLE9=Посвящение Джанис
TTITLE10=По пути в Париж
TTITLE11=Маленький кораблик
TTITLE12=Джонни
TTITLE13=Мухи и слоны
EXTD=
EXTT0=
EXTT1=
EXTT2=
EXTT3=
EXTT4=
EXTT5=
EXTT6=
EXTT7=
EXTT8=
EXTT9=
EXTT10=
EXTT11=
EXTT12=
EXTT13=
PLAYORDER=
